<svg width="231" height="29" viewBox="0 0 231 29" fill="none" xmlns="http://www.w3.org/2000/svg">
<path d="M10.75 10.5625C11.3438 10.5625 11.8333 10.3854 12.2188 10.0312C12.6146 9.67708 12.9115 9.22396 13.1094 8.67188C13.3177 8.10938 13.4219 7.53125 13.4219 6.9375C13.4219 6.35417 13.3281 5.80208 13.1406 5.28125C12.9531 4.76042 12.6719 4.33854 12.2969 4.01562C11.9219 3.68229 11.4479 3.51562 10.875 3.51562C9.86458 3.51562 8.99479 3.70833 8.26562 4.09375C7.54688 4.46875 6.99479 4.94792 6.60938 5.53125C6.22396 6.11458 6.03125 6.71354 6.03125 7.32812C6.03125 8.20312 6.41146 8.95312 7.17188 9.57812C7.93229 10.1927 9.125 10.5208 10.75 10.5625ZM19.7344 22H12.25C12.4271 21.5833 12.5156 21.1302 12.5156 20.6406C12.5156 19.7865 12.3125 18.8854 11.9062 17.9375C11.5 16.9896 11.0104 16.1042 10.4375 15.2812C9.86458 14.4479 9.30208 13.7708 8.75 13.25C8.19792 12.7188 7.77083 12.4531 7.46875 12.4531C7.25 12.4531 7.02083 12.5052 6.78125 12.6094C6.55208 12.7031 6.35417 12.8698 6.1875 13.1094C6.03125 13.3385 5.95312 13.6615 5.95312 14.0781C5.95312 14.3802 6.05208 14.75 6.25 15.1875C6.45833 15.6146 6.70833 16.0938 7 16.625C7.30208 17.1458 7.59375 17.6979 7.875 18.2812C8.16667 18.8646 8.41146 19.4688 8.60938 20.0938C8.80729 20.7188 8.90625 21.3542 8.90625 22H0.921875C1.31771 21.6667 1.60938 21.2552 1.79688 20.7656C1.98438 20.276 2.09896 19.7031 2.14062 19.0469C2.18229 18.3906 2.20312 17.6406 2.20312 16.7969V5.48438C2.20312 5.04688 2.18229 4.48438 2.14062 3.79688C2.09896 3.09896 1.98438 2.42708 1.79688 1.78125C1.60938 1.13542 1.31771 0.630208 0.921875 0.265625H12.1875C13.75 0.265625 15.0104 0.53125 15.9688 1.0625C16.9271 1.58333 17.625 2.27083 18.0625 3.125C18.5 3.96875 18.7188 4.875 18.7188 5.84375C18.7188 7.91667 18.1198 9.55208 16.9219 10.75C15.724 11.9479 14.0938 12.6458 12.0312 12.8438C12.4792 13.1667 13.5521 13.5104 15.25 13.875C16.1354 14.1042 16.7917 14.6927 17.2188 15.6406C17.6458 16.5781 17.9844 17.5938 18.2344 18.6875C18.4323 19.4479 18.6406 20.1302 18.8594 20.7344C19.0885 21.3385 19.3802 21.7604 19.7344 22ZM28.7812 22.5312C27.2812 22.5312 25.974 22.2865 24.8594 21.7969C23.7448 21.2969 22.8229 20.6302 22.0938 19.7969C21.3646 18.9635 20.8229 18.0208 20.4688 16.9688C20.1146 15.9167 19.9375 14.8385 19.9375 13.7344C19.9375 12.6094 20.1146 11.5104 20.4688 10.4375C20.8333 9.35417 21.3698 8.38542 22.0781 7.53125C22.7969 6.66667 23.6823 5.97917 24.7344 5.46875C25.7969 4.94792 27.0156 4.6875 28.3906 4.6875C29.1927 4.6875 30.1667 4.79167 31.3125 5C32.1771 5.14583 32.8333 5.21875 33.2812 5.21875C33.8229 5.21875 34.3229 5.04167 34.7812 4.6875C34.9688 5.35417 35.0625 5.92708 35.0625 6.40625C35.0625 6.83333 34.9896 7.24479 34.8438 7.64062C34.6979 8.02604 34.4844 8.47917 34.2031 9L32.7656 11.7188C32.5469 12.1458 32.25 12.5677 31.875 12.9844C31.5 13.3906 31.0729 13.7344 30.5938 14.0156C30.1146 14.2969 29.6146 14.4375 29.0938 14.4375C28.5521 14.4375 28.0938 14.3229 27.7188 14.0938C27.3542 13.8542 27.0729 13.5521 26.875 13.1875C26.6875 12.8125 26.5938 12.4167 26.5938 12C26.5938 11.5833 26.6979 11.1771 26.9062 10.7812C27.1146 10.3854 27.4323 10.0625 27.8594 9.8125C28.0365 10.4375 28.3177 10.875 28.7031 11.125C29.099 11.375 29.4896 11.5 29.875 11.5C30.4062 11.5 30.9427 11.3333 31.4844 11C32.026 10.6667 32.4688 10.1458 32.8125 9.4375L32.5 9.45312C31.8333 9.45312 31.2604 9.375 30.7812 9.21875C30.3125 9.05208 29.9062 8.84896 29.5625 8.60938C29.2188 8.36979 28.9167 8.13542 28.6562 7.90625C28.3958 7.66667 28.1458 7.46875 27.9062 7.3125C27.6667 7.15625 27.4062 7.07812 27.125 7.07812C26.6146 7.07812 26.151 7.52083 25.7344 8.40625C25.3281 9.28125 25.125 10.2708 25.125 11.375C25.125 12.2083 25.2812 13.0312 25.5938 13.8438C25.9167 14.6562 26.4583 15.3281 27.2188 15.8594C27.9792 16.3906 29.0052 16.6667 30.2969 16.6875C31.1302 16.6875 31.9896 16.4948 32.875 16.1094C33.7604 15.724 34.4479 15.1562 34.9375 14.4062C35.3854 15.4896 35.6094 16.4583 35.6094 17.3125C35.6094 18.2083 35.4062 18.9844 35 19.6406C34.5938 20.2969 34.0573 20.8385 33.3906 21.2656C32.7344 21.6927 32 22.0104 31.1875 22.2188C30.3854 22.4271 29.5833 22.5312 28.7812 22.5312ZM37.4375 28.0312C37.2083 27.0938 37.0938 26.25 37.0938 25.5C37.0938 24.4688 37.2604 23.6198 37.5938 22.9531C37.9375 22.2969 38.349 21.8125 38.8281 21.5C39.3177 21.1771 39.7812 21.0156 40.2188 21.0156C40.8125 21.0156 41.3229 21.1302 41.75 21.3594C42.1875 21.5781 42.6094 21.8333 43.0156 22.125C43.4219 22.4167 43.8594 22.6719 44.3281 22.8906C44.7969 23.1198 45.349 23.2448 45.9844 23.2656C46.5781 23.2656 47.0781 23.1198 47.4844 22.8281C47.901 22.5365 48.1094 22.2031 48.1094 21.8281C48.1094 21.4635 47.8698 21.1302 47.3906 20.8281C46.9115 20.5156 46.099 20.3021 44.9531 20.1875C43.0469 19.9896 41.4844 19.4583 40.2656 18.5938C39.0469 17.7188 38.1406 16.6562 37.5469 15.4062C36.9635 14.1458 36.6719 12.8802 36.6719 11.6094C36.6719 10.4948 36.8854 9.45312 37.3125 8.48438C37.7396 7.50521 38.3594 6.71875 39.1719 6.125C39.9844 5.52083 40.974 5.21875 42.1406 5.21875H52.9688C52.5729 5.58333 52.2812 6.08854 52.0938 6.73438C51.9167 7.38021 51.8073 8.04688 51.7656 8.73438C51.724 9.42188 51.7031 9.98438 51.7031 10.4219V19.875C51.7031 21.75 51.5208 23.2656 51.1562 24.4219C50.7917 25.5885 50.1667 26.4375 49.2812 26.9688C48.3958 27.5 47.1615 27.7656 45.5781 27.7656C45.2031 27.7656 44.8021 27.724 44.375 27.6406C43.9479 27.5677 43.5052 27.4844 43.0469 27.3906C42.5469 27.276 42.0417 27.1719 41.5312 27.0781C41.0312 26.9948 40.5417 26.9531 40.0625 26.9531C38.9375 26.9531 38.0625 27.3125 37.4375 28.0312ZM49.2656 18.2812V14.1406C49.2656 13.5052 48.9375 12.7969 48.2812 12.0156C47.9896 11.6719 47.6719 11.3229 47.3281 10.9688C46.6302 10.2604 46.0365 9.53125 45.5469 8.78125C45.3073 8.40625 45.0833 8.11458 44.875 7.90625C44.6771 7.69792 44.4219 7.59375 44.1094 7.59375C43.4844 7.61458 43.0104 7.91146 42.6875 8.48438C42.375 9.05729 42.2188 9.76042 42.2188 10.5938C42.2188 11.6667 42.4896 12.7708 43.0312 13.9062C43.5833 15.0417 44.4219 15.8802 45.5469 16.4219C45.9115 16.5781 46.276 16.724 46.6406 16.8594C47.1406 17.0365 47.6198 17.2344 48.0781 17.4531C48.5365 17.6719 48.9323 17.9479 49.2656 18.2812ZM69.5625 22H58.1094C57.4844 22 56.9115 21.8073 56.3906 21.4219C55.8698 21.0365 55.4531 20.5312 55.1406 19.9062C54.8385 19.2812 54.6875 18.599 54.6875 17.8594C54.6875 15.9948 55.7292 14.5469 57.8125 13.5156C58.4479 13.224 59.2292 12.9219 60.1562 12.6094C60.8854 12.349 61.6094 12.0729 62.3281 11.7812C63.6302 11.2604 64.3906 10.8125 64.6094 10.4375C64.7031 10.2812 64.75 10.1302 64.75 9.98438C64.75 9.82812 64.6823 9.69271 64.5469 9.57812C64.4219 9.46354 64.224 9.40625 63.9531 9.40625C63.3177 9.40625 62.7396 9.46875 62.2188 9.59375C61.6979 9.70833 61.1823 9.84896 60.6719 10.0156C60.1615 10.1719 59.625 10.3177 59.0625 10.4531C58.5 10.5781 57.8698 10.6406 57.1719 10.6406C56.5052 10.6406 55.9271 10.2344 55.4375 9.42188C54.9583 8.60938 54.7188 7.56771 54.7188 6.29688C54.7188 5.79688 54.7656 5.26042 54.8594 4.6875C55.3594 5.11458 55.9688 5.32812 56.6875 5.32812C57.1042 5.32812 57.7552 5.23958 58.6406 5.0625C59.0781 4.96875 59.5417 4.88542 60.0312 4.8125C60.5312 4.72917 61.0573 4.6875 61.6094 4.6875C63.2031 4.6875 64.4635 4.84896 65.3906 5.17188C66.3177 5.49479 67.0104 5.96875 67.4688 6.59375C67.9271 7.21875 68.2188 7.98958 68.3438 8.90625C68.4792 9.8125 68.5469 10.849 68.5469 12.0156V17.9531C68.5469 18.2865 68.5625 18.724 68.5938 19.2656C68.6354 19.7969 68.7292 20.3177 68.875 20.8281C69.0208 21.3281 69.25 21.7188 69.5625 22ZM61.1719 19.9062C61.9844 19.875 62.8021 19.5885 63.625 19.0469C64.4583 18.5052 65.1615 17.8177 65.7344 16.9844C66.3177 16.1406 66.6094 15.276 66.6094 14.3906C66.6094 13.7969 66.5833 13.2031 66.5312 12.6094C66.4792 12.0156 66.3542 11.4688 66.1562 10.9688C65.8542 11.7812 65.3906 12.4635 64.7656 13.0156C64.151 13.5677 63.4896 14.0625 62.7812 14.5C62.25 14.8438 61.7552 15.2031 61.2969 15.5781C60.8385 15.9427 60.4635 16.3542 60.1719 16.8125C59.8906 17.2708 59.75 17.8177 59.75 18.4531C59.75 18.6615 59.7812 18.8802 59.8438 19.1094C59.9062 19.3281 60.0312 19.5156 60.2188 19.6719C60.4062 19.8281 60.6927 19.9062 61.0781 19.9062H61.1719ZM88 22H82.0781C82.2344 21.8125 82.4688 21.3073 82.7812 20.4844C83.0938 19.6615 83.3854 18.6927 83.6562 17.5781C83.9375 16.4635 84.0781 15.4115 84.0781 14.4219C84.0781 13.3594 83.8542 12.4896 83.4062 11.8125C82.9688 11.125 82.401 10.6198 81.7031 10.2969C81.0052 9.96354 80.276 9.79688 79.5156 9.79688C78.776 9.79688 78.0677 9.94271 77.3906 10.2344C76.724 10.526 76.1771 10.9531 75.75 11.5156C75.3229 12.0781 75.1094 12.7604 75.1094 13.5625C75.1094 13.9479 75.2031 14.3177 75.3906 14.6719C75.5781 15.0156 75.8229 15.3542 76.125 15.6875C76.4271 16.0208 76.75 16.349 77.0938 16.6719C77.5938 17.1406 78.0573 17.6354 78.4844 18.1562C78.9115 18.6771 79.1979 19.25 79.3438 19.875C79.5104 20.8021 79.8542 21.5104 80.375 22H71.3438C71.7396 21.6354 72.0312 21.1302 72.2188 20.4844C72.4062 19.8385 72.5208 19.1719 72.5625 18.4844C72.6042 17.7865 72.625 17.224 72.625 16.7969V10.4219C72.625 9.57812 72.6042 8.82812 72.5625 8.17188C72.5208 7.51562 72.4062 6.94271 72.2188 6.45312C72.0312 5.96354 71.7396 5.55208 71.3438 5.21875H76.3281C76.3281 5.76042 76.2812 6.26562 76.1875 6.73438C77.7083 5.36979 79.4271 4.6875 81.3438 4.6875H81.4688C82.5938 4.6875 83.5573 4.96354 84.3594 5.51562C85.1719 6.06771 85.7969 6.92188 86.2344 8.07812C86.6719 9.22396 86.8906 10.6875 86.8906 12.4688V18.0781C86.8906 18.7135 86.9062 19.2812 86.9375 19.7812C86.9792 20.2708 87.0781 20.7031 87.2344 21.0781C87.401 21.4427 87.6562 21.75 88 22ZM117.625 22H109.641C109.641 21.3438 109.865 20.5938 110.312 19.75C110.76 18.8958 111.302 18.0312 111.938 17.1562C112.583 16.2708 113.219 15.4271 113.844 14.625C113.021 15.1979 112.156 15.4844 111.25 15.4844C110.667 15.4844 109.917 15.2552 109 14.7969C108.083 14.3281 107.156 13.8229 106.219 13.2812C105.458 12.8333 104.766 12.4479 104.141 12.125C103.516 11.8021 103.047 11.6406 102.734 11.6406C102.255 11.6615 101.896 11.8229 101.656 12.125C101.427 12.4271 101.312 12.7448 101.312 13.0781C101.312 13.4531 101.401 13.8177 101.578 14.1719C101.766 14.5156 102.005 14.8646 102.297 15.2188C102.599 15.5625 102.917 15.9115 103.25 16.2656C103.771 16.7969 104.255 17.3594 104.703 17.9531C105.151 18.5365 105.453 19.1771 105.609 19.875C105.766 20.8021 106.104 21.5104 106.625 22H97.6094C98.0052 21.6354 98.2917 21.1302 98.4688 20.4844C98.6562 19.8385 98.7708 19.1719 98.8125 18.4844C98.8542 17.7865 98.875 17.224 98.875 16.7969V5.48438C98.875 4.64062 98.8542 3.89062 98.8125 3.23438C98.7708 2.57812 98.6562 2.00521 98.4688 1.51562C98.2917 1.01562 98.0052 0.598958 97.6094 0.265625H105.578C105.578 0.911458 105.365 1.64583 104.938 2.46875C104.51 3.29167 103.99 4.13021 103.375 4.98438C102.885 5.67188 102.219 6.5625 101.375 7.65625C102.219 7.07292 103.083 6.78125 103.969 6.78125C104.49 6.78125 105.062 6.90625 105.688 7.15625C106.312 7.39583 106.948 7.69792 107.594 8.0625C108.24 8.42708 108.87 8.79167 109.484 9.15625C110.141 9.5625 110.729 9.91146 111.25 10.2031C111.781 10.4844 112.193 10.625 112.484 10.625C112.974 10.6042 113.333 10.4479 113.562 10.1562C113.792 9.85417 113.906 9.53125 113.906 9.1875C113.906 8.8125 113.812 8.45312 113.625 8.10938C113.448 7.75521 113.214 7.40625 112.922 7.0625C112.63 6.70833 112.312 6.35417 111.969 6C111.458 5.46875 110.979 4.91146 110.531 4.32812C110.094 3.73438 109.792 3.09375 109.625 2.40625C109.458 1.47917 109.115 0.765625 108.594 0.265625H117.625C117.229 0.630208 116.938 1.13542 116.75 1.78125C116.573 2.42708 116.458 3.09896 116.406 3.79688C116.365 4.48438 116.344 5.04688 116.344 5.48438V16.7969C116.344 17.6406 116.365 18.3906 116.406 19.0469C116.458 19.7031 116.573 20.276 116.75 20.7656C116.938 21.2552 117.229 21.6667 117.625 22ZM127.281 22H119.828C120.224 21.6458 120.51 21.1458 120.688 20.5C120.875 19.8438 120.99 19.1719 121.031 18.4844C121.083 17.7865 121.109 17.224 121.109 16.7969V11.3125C121.109 10.8854 121.083 10.3281 121.031 9.64062C120.99 8.94271 120.875 8.27083 120.688 7.625C120.51 6.96875 120.224 6.46354 119.828 6.10938H127.281C126.885 6.46354 126.594 6.96875 126.406 7.625C126.229 8.27083 126.115 8.94271 126.062 9.64062C126.021 10.3281 126 10.8854 126 11.3125V16.7969C126 17.224 126.021 17.7865 126.062 18.4844C126.115 19.1719 126.229 19.8438 126.406 20.5C126.594 21.1458 126.885 21.6458 127.281 22ZM123.547 5.21875C123.068 5.21875 122.609 5.13542 122.172 4.96875C121.745 4.80208 121.396 4.53646 121.125 4.17188C120.865 3.80729 120.734 3.32812 120.734 2.73438C120.734 2.15104 120.865 1.67708 121.125 1.3125C121.396 0.947917 121.745 0.682292 122.172 0.515625C122.609 0.348958 123.068 0.265625 123.547 0.265625C124.036 0.265625 124.495 0.348958 124.922 0.515625C125.359 0.682292 125.708 0.947917 125.969 1.3125C126.24 1.67708 126.375 2.15104 126.375 2.73438C126.375 3.32812 126.24 3.80729 125.969 4.17188C125.708 4.53646 125.359 4.80208 124.922 4.96875C124.495 5.13542 124.036 5.21875 123.547 5.21875ZM138.609 22H129.578C129.974 21.6354 130.266 21.1302 130.453 20.4844C130.641 19.8385 130.755 19.1719 130.797 18.4844C130.839 17.7865 130.859 17.224 130.859 16.7969V5.48438C130.859 4.64062 130.839 3.89062 130.797 3.23438C130.755 2.57812 130.641 2.00521 130.453 1.51562C130.266 1.01562 129.974 0.598958 129.578 0.265625H137.547V1.375C137.547 2.0625 137.464 2.80208 137.297 3.59375C137.141 4.38542 136.781 5.17188 136.219 5.95312C135.781 6.54688 135.464 7.16146 135.266 7.79688C135.078 8.43229 134.964 9.14062 134.922 9.92188C134.88 10.6927 134.859 11.7448 134.859 13.0781C134.859 13.6615 134.979 14.2292 135.219 14.7812C135.469 15.3229 135.766 15.8802 136.109 16.4531C136.401 16.9531 136.682 17.4844 136.953 18.0469C137.224 18.6094 137.432 19.2188 137.578 19.875C137.755 20.8021 138.099 21.5104 138.609 22ZM148.766 22H139.734C140.13 21.6354 140.422 21.1302 140.609 20.4844C140.797 19.8385 140.911 19.1719 140.953 18.4844C140.995 17.7865 141.016 17.224 141.016 16.7969V5.48438C141.016 4.64062 140.995 3.89062 140.953 3.23438C140.911 2.57812 140.797 2.00521 140.609 1.51562C140.422 1.01562 140.13 0.598958 139.734 0.265625H147.703V1.375C147.703 2.0625 147.62 2.80208 147.453 3.59375C147.297 4.38542 146.938 5.17188 146.375 5.95312C145.938 6.54688 145.62 7.16146 145.422 7.79688C145.234 8.43229 145.12 9.14062 145.078 9.92188C145.036 10.6927 145.016 11.7448 145.016 13.0781C145.016 13.6615 145.135 14.2292 145.375 14.7812C145.625 15.3229 145.922 15.8802 146.266 16.4531C146.557 16.9531 146.839 17.4844 147.109 18.0469C147.38 18.6094 147.589 19.2188 147.734 19.875C147.911 20.8021 148.255 21.5104 148.766 22ZM160.891 15.7656C160.349 15.4323 159.677 15.224 158.875 15.1406C158.083 15.0573 157.365 15.0156 156.719 15.0156H153.609C152.964 15.0156 152.234 15.0573 151.422 15.1406C150.62 15.224 149.958 15.4323 149.438 15.7656V11.4531C149.979 11.7865 150.646 11.9948 151.438 12.0781C152.24 12.1615 152.964 12.2031 153.609 12.2031H156.719C157.365 12.2031 158.083 12.1615 158.875 12.0781C159.677 11.9948 160.349 11.7865 160.891 11.4531V15.7656ZM188.188 22H180.219C180.615 21.6354 180.901 21.1302 181.078 20.4844C181.266 19.8385 181.38 19.1719 181.422 18.4844C181.464 17.7865 181.484 17.224 181.484 16.7969L181.5 9.0625L181.484 5.20312L180.891 6.54688C179.797 8.89062 178.839 11.2552 178.016 13.6406C177.901 14.0156 177.802 14.5365 177.719 15.2031C177.646 15.8698 177.609 16.5677 177.609 17.2969C177.609 19.1823 177.854 20.3854 178.344 20.9062C177.844 21.0521 177.375 21.125 176.938 21.125C176.042 21.125 175.271 20.8594 174.625 20.3281C173.99 19.7969 173.443 19.1042 172.984 18.25C172.526 17.3854 172.13 16.4427 171.797 15.4219C171.464 14.401 171.156 13.3854 170.875 12.375C170.479 10.875 170.062 9.60938 169.625 8.57812C169.198 7.53646 168.646 6.98958 167.969 6.9375C167.719 6.9375 167.464 7.05208 167.203 7.28125C166.953 7.51042 166.745 7.85938 166.578 8.32812C166.422 8.78646 166.344 9.38021 166.344 10.1094V11.5C166.344 12.5417 166.448 13.3802 166.656 14.0156C166.875 14.651 167.151 15.1667 167.484 15.5625C167.828 15.9583 168.193 16.3177 168.578 16.6406C169.005 17.0052 169.406 17.4271 169.781 17.9062C170.156 18.3854 170.438 19.0417 170.625 19.875C170.802 20.8021 171.146 21.5104 171.656 22H162.625C163.021 21.6354 163.312 21.1302 163.5 20.4844C163.688 19.8385 163.802 19.1719 163.844 18.4844C163.885 17.7865 163.906 17.224 163.906 16.7969V5.48438C163.906 4.64062 163.885 3.89062 163.844 3.23438C163.802 2.57812 163.688 2.00521 163.5 1.51562C163.312 1.01562 163.021 0.598958 162.625 0.265625H167.172C168.661 0.265625 169.927 0.552083 170.969 1.125C172.021 1.6875 172.901 2.42188 173.609 3.32812C174.318 4.23438 174.896 5.21875 175.344 6.28125C175.802 7.34375 176.177 8.39062 176.469 9.42188L176.984 8.29688C177.297 7.60938 177.646 6.82292 178.031 5.9375C178.417 5.04167 178.755 4.16146 179.047 3.29688C179.339 2.42188 179.484 1.69271 179.484 1.10938C179.484 0.744792 179.411 0.463542 179.266 0.265625H188.188C187.792 0.630208 187.5 1.13542 187.312 1.78125C187.135 2.42708 187.026 3.09896 186.984 3.79688C186.943 4.48438 186.922 5.04688 186.922 5.48438V16.7969C186.922 17.224 186.943 17.7865 186.984 18.4844C187.026 19.1719 187.135 19.8385 187.312 20.4844C187.5 21.1302 187.792 21.6354 188.188 22ZM204.719 22H193.266C192.641 22 192.068 21.8073 191.547 21.4219C191.026 21.0365 190.609 20.5312 190.297 19.9062C189.995 19.2812 189.844 18.599 189.844 17.8594C189.844 15.9948 190.885 14.5469 192.969 13.5156C193.604 13.224 194.385 12.9219 195.312 12.6094C196.042 12.349 196.766 12.0729 197.484 11.7812C198.786 11.2604 199.547 10.8125 199.766 10.4375C199.859 10.2812 199.906 10.1302 199.906 9.98438C199.906 9.82812 199.839 9.69271 199.703 9.57812C199.578 9.46354 199.38 9.40625 199.109 9.40625C198.474 9.40625 197.896 9.46875 197.375 9.59375C196.854 9.70833 196.339 9.84896 195.828 10.0156C195.318 10.1719 194.781 10.3177 194.219 10.4531C193.656 10.5781 193.026 10.6406 192.328 10.6406C191.661 10.6406 191.083 10.2344 190.594 9.42188C190.115 8.60938 189.875 7.56771 189.875 6.29688C189.875 5.79688 189.922 5.26042 190.016 4.6875C190.516 5.11458 191.125 5.32812 191.844 5.32812C192.26 5.32812 192.911 5.23958 193.797 5.0625C194.234 4.96875 194.698 4.88542 195.188 4.8125C195.688 4.72917 196.214 4.6875 196.766 4.6875C198.359 4.6875 199.62 4.84896 200.547 5.17188C201.474 5.49479 202.167 5.96875 202.625 6.59375C203.083 7.21875 203.375 7.98958 203.5 8.90625C203.635 9.8125 203.703 10.849 203.703 12.0156V17.9531C203.703 18.2865 203.719 18.724 203.75 19.2656C203.792 19.7969 203.885 20.3177 204.031 20.8281C204.177 21.3281 204.406 21.7188 204.719 22ZM196.328 19.9062C197.141 19.875 197.958 19.5885 198.781 19.0469C199.615 18.5052 200.318 17.8177 200.891 16.9844C201.474 16.1406 201.766 15.276 201.766 14.3906C201.766 13.7969 201.74 13.2031 201.688 12.6094C201.635 12.0156 201.51 11.4688 201.312 10.9688C201.01 11.7812 200.547 12.4635 199.922 13.0156C199.307 13.5677 198.646 14.0625 197.938 14.5C197.406 14.8438 196.911 15.2031 196.453 15.5781C195.995 15.9427 195.62 16.3542 195.328 16.8125C195.047 17.2708 194.906 17.8177 194.906 18.4531C194.906 18.6615 194.938 18.8802 195 19.1094C195.062 19.3281 195.188 19.5156 195.375 19.6719C195.562 19.8281 195.849 19.9062 196.234 19.9062H196.328ZM215.391 22H206.359C206.755 21.6354 207.047 21.1302 207.234 20.4844C207.422 19.8385 207.536 19.1719 207.578 18.4844C207.62 17.7865 207.641 17.224 207.641 16.7969V5.48438C207.641 4.64062 207.62 3.89062 207.578 3.23438C207.536 2.57812 207.422 2.00521 207.234 1.51562C207.047 1.01562 206.755 0.598958 206.359 0.265625H214.328V1.375C214.328 2.0625 214.245 2.80208 214.078 3.59375C213.922 4.38542 213.562 5.17188 213 5.95312C212.562 6.54688 212.245 7.16146 212.047 7.79688C211.859 8.43229 211.745 9.14062 211.703 9.92188C211.661 10.6927 211.641 11.7448 211.641 13.0781C211.641 13.6615 211.76 14.2292 212 14.7812C212.25 15.3229 212.547 15.8802 212.891 16.4531C213.182 16.9531 213.464 17.4844 213.734 18.0469C214.005 18.6094 214.214 19.2188 214.359 19.875C214.536 20.8021 214.88 21.5104 215.391 22ZM223.906 22.5312C222.406 22.5312 221.099 22.2865 219.984 21.7969C218.87 21.2969 217.948 20.6302 217.219 19.7969C216.49 18.9635 215.948 18.0208 215.594 16.9688C215.24 15.9167 215.062 14.8385 215.062 13.7344C215.062 12.6094 215.24 11.5104 215.594 10.4375C215.958 9.35417 216.495 8.38542 217.203 7.53125C217.922 6.66667 218.807 5.97917 219.859 5.46875C220.922 4.94792 222.141 4.6875 223.516 4.6875C224.318 4.6875 225.292 4.79167 226.438 5C227.302 5.14583 227.958 5.21875 228.406 5.21875C228.948 5.21875 229.448 5.04167 229.906 4.6875C230.094 5.35417 230.188 5.92708 230.188 6.40625C230.188 6.83333 230.115 7.24479 229.969 7.64062C229.823 8.02604 229.609 8.47917 229.328 9L227.891 11.7188C227.672 12.1458 227.375 12.5677 227 12.9844C226.625 13.3906 226.198 13.7344 225.719 14.0156C225.24 14.2969 224.74 14.4375 224.219 14.4375C223.677 14.4375 223.219 14.3229 222.844 14.0938C222.479 13.8542 222.198 13.5521 222 13.1875C221.812 12.8125 221.719 12.4167 221.719 12C221.719 11.5833 221.823 11.1771 222.031 10.7812C222.24 10.3854 222.557 10.0625 222.984 9.8125C223.161 10.4375 223.443 10.875 223.828 11.125C224.224 11.375 224.615 11.5 225 11.5C225.531 11.5 226.068 11.3333 226.609 11C227.151 10.6667 227.594 10.1458 227.938 9.4375L227.625 9.45312C226.958 9.45312 226.385 9.375 225.906 9.21875C225.438 9.05208 225.031 8.84896 224.688 8.60938C224.344 8.36979 224.042 8.13542 223.781 7.90625C223.521 7.66667 223.271 7.46875 223.031 7.3125C222.792 7.15625 222.531 7.07812 222.25 7.07812C221.74 7.07812 221.276 7.52083 220.859 8.40625C220.453 9.28125 220.25 10.2708 220.25 11.375C220.25 12.2083 220.406 13.0312 220.719 13.8438C221.042 14.6562 221.583 15.3281 222.344 15.8594C223.104 16.3906 224.13 16.6667 225.422 16.6875C226.255 16.6875 227.115 16.4948 228 16.1094C228.885 15.724 229.573 15.1562 230.062 14.4062C230.51 15.4896 230.734 16.4583 230.734 17.3125C230.734 18.2083 230.531 18.9844 230.125 19.6406C229.719 20.2969 229.182 20.8385 228.516 21.2656C227.859 21.6927 227.125 22.0104 226.312 22.2188C225.51 22.4271 224.708 22.5312 223.906 22.5312Z" fill="#583B3B"/>
</svg>
